<svg class="svg-icon" style="width:1em;height:1em;vertical-align:middle" viewBox="0 0 1024 1024" xmlns="http://www.w3.org/2000/svg" fill="#ddd" overflow="hidden"><path d="M512 128c-211.2 0-384 172.8-384 384s172.8 384 384 384 384-172.8 384-384-172.8-384-384-384zm0 704c-179.2 0-320-140.8-320-320s140.8-320 320-320 320 140.8 320 320-140.8 320-320 320z"/><path d="M672 352c-12.8-12.8-32-12.8-44.8 0L512 467.2 396.8 352c-12.8-12.8-32-12.8-44.8 0s-12.8 32 0 44.8L467.2 512 352 627.2c-12.8 12.8-12.8 32 0 44.8s32 12.8 44.8 0L512 556.8 627.2 672c12.8 12.8 32 12.8 44.8 0s12.8-32 0-44.8L556.8 512 672 396.8c12.8-12.8 12.8-32 0-44.8z"/></svg>