<svg width="80" height="80" fill="none" xmlns="http://www.w3.org/2000/svg"><path d="M42.998 33.072a9.927 9.927 0 00-9.44 12.994 3 3 0 105.706-1.854 3.927 3.927 0 013.735-5.14 3 3 0 00-.002-6z" fill="#C2CCDE"/><path fill-rule="evenodd" clip-rule="evenodd" d="M38.297 9a4 4 0 00-3.665 2.397L33.931 13h-.075a4 4 0 00-3.735 2.57L28.425 20h-2.9l-.187-.855A4 4 0 0021.43 16h-2.826a4 4 0 00-3.907 3.145L14.51 20H14a5 5 0 00-5 5v36a5 5 0 005 5h17.95a25.519 25.519 0 0022.1 0H64a5 5 0 005-5V25a5 5 0 00-5-5h-6.304L56 15.57A4 4 0 0052.265 13h-.127l-.701-1.603A4 4 0 0047.772 9h-9.475zm14.461 17.098a19.516 19.516 0 10-19.516 33.803 19.516 19.516 0 0019.516-33.803z" fill="#C2CCDE"/></svg>